<?xml version="1.0" standalone="no"?>
<!DOCTYPE svg PUBLIC "-//W3C//DTD SVG 20010904//EN"
 "http://www.w3.org/TR/2001/REC-SVG-20010904/DTD/svg10.dtd">
<svg version="1.0" xmlns="http://www.w3.org/2000/svg"
 width="2400.000000pt" height="2400.000000pt" viewBox="0 0 2400.000000 2400.000000"
 preserveAspectRatio="xMidYMid meet">
<metadata>
Created by potrace 1.14, written by Peter Selinger 2001-2017
</metadata>
<g transform="translate(0.000000,2400.000000) scale(0.100000,-0.100000)"
fill="#000000" stroke="none">
<path d="M2298 15815 c-1 -1 -46 -5 -98 -9 -107 -7 -144 -12 -215 -26 -27 -6
-59 -12 -70 -14 -195 -38 -425 -134 -600 -252 -107 -71 -144 -102 -250 -210
-331 -333 -556 -867 -649 -1534 -18 -131 -25 -189 -31 -270 -3 -36 -7 -78 -10
-95 -24 -183 -25 -1003 0 -1195 2 -19 7 -66 10 -105 3 -38 8 -83 10 -100 2
-16 7 -52 10 -80 48 -410 167 -831 323 -1135 243 -475 591 -771 1067 -909 117
-34 205 -50 380 -71 73 -8 504 -6 542 3 11 3 43 9 70 12 331 48 651 189 878
389 227 199 389 435 522 759 25 62 49 123 53 137 5 14 22 70 39 125 47 150
106 410 127 560 3 22 7 49 8 60 2 11 7 49 11 85 4 36 9 72 10 80 2 8 6 49 9
90 4 41 9 95 11 120 24 248 24 925 0 1155 -2 22 -6 72 -10 110 -59 676 -243
1252 -518 1624 -57 77 -79 103 -177 202 -270 275 -598 425 -1055 484 -52 7
-391 16 -397 10z m243 -340 c255 -42 431 -256 504 -610 9 -44 18 -87 20 -95 1
-8 6 -44 10 -80 4 -36 9 -76 10 -90 4 -28 14 -186 20 -305 26 -527 26 -2580 0
-2975 -2 -30 -6 -107 -10 -170 -10 -179 -18 -249 -46 -390 -86 -432 -299 -635
-654 -625 -266 8 -453 147 -558 415 -30 77 -73 267 -83 365 -3 39 -8 78 -9 87
-2 9 -7 72 -10 140 -4 68 -9 143 -10 168 -26 380 -26 2490 0 2990 8 151 16
279 20 302 2 12 6 50 9 83 14 149 78 384 133 483 100 182 246 287 428 308 27
4 51 7 53 9 5 4 129 -3 173 -10z"/>
<path d="M12738 15815 c-2 -2 -39 -6 -83 -9 -44 -3 -107 -11 -140 -17 -33 -5
-69 -12 -80 -14 -332 -57 -679 -240 -900 -475 -33 -35 -68 -72 -79 -83 -26
-27 -156 -208 -167 -232 -5 -11 -20 -38 -34 -60 -39 -62 -118 -230 -163 -345
-33 -86 -104 -310 -117 -370 -2 -8 -15 -67 -28 -130 -24 -109 -49 -252 -62
-350 -3 -25 -8 -56 -10 -70 -2 -14 -6 -54 -10 -90 -3 -36 -8 -85 -10 -110 -5
-43 -10 -118 -20 -300 -5 -96 -6 -616 0 -700 2 -30 6 -104 9 -165 4 -60 8
-126 10 -145 11 -88 19 -157 21 -185 7 -78 38 -274 60 -375 8 -36 17 -76 19
-90 10 -51 55 -218 86 -313 158 -493 415 -863 755 -1088 181 -120 413 -215
623 -254 13 -2 31 -6 40 -9 9 -3 40 -8 68 -11 28 -3 61 -8 75 -11 42 -10 471
-13 549 -3 134 15 175 21 181 25 3 2 21 6 40 9 59 10 188 45 247 66 359 130
634 353 856 694 61 93 157 288 208 420 40 105 100 291 112 350 3 11 14 61 26
110 12 50 24 99 25 110 2 11 9 49 16 85 6 36 13 74 15 85 1 11 5 36 8 55 9 59
35 271 40 335 17 197 21 318 21 650 0 376 -8 558 -30 750 -4 28 -8 68 -11 90
-4 38 -11 89 -19 145 -103 695 -332 1220 -679 1553 -60 57 -221 187 -232 187
-3 0 -18 9 -33 19 -14 10 -70 42 -125 70 -136 72 -292 123 -506 166 -8 1 -42
6 -75 10 -33 4 -71 9 -85 12 -27 4 -408 11 -412 8z m294 -343 c266 -51 436
-284 503 -692 4 -25 9 -53 11 -63 3 -17 9 -76 19 -197 24 -282 37 -864 36
-1740 0 -986 -11 -1418 -46 -1816 -32 -357 -149 -618 -331 -739 -90 -60 -181
-87 -305 -90 -350 -10 -567 185 -658 590 -17 73 -21 95 -26 145 -3 25 -8 61
-10 80 -9 57 -17 173 -30 445 -23 467 -23 2407 0 2820 25 477 38 579 98 780
82 280 260 452 494 481 26 3 49 6 50 8 6 6 143 -3 195 -12z"/>
<path d="M6007 15682 l-27 -3 3 -2192 c2 -1206 6 -2203 9 -2217 4 -14 9 -47
13 -75 6 -53 14 -107 20 -140 11 -69 52 -223 80 -300 130 -364 346 -616 670
-782 153 -78 373 -144 565 -169 25 -3 63 -8 85 -11 68 -9 508 -11 561 -3 27 5
75 11 107 14 31 4 90 13 130 22 39 8 82 17 94 20 94 18 309 110 418 177 114
71 252 203 330 317 48 70 135 240 135 262 0 8 4 18 8 23 33 38 97 349 108 522
9 134 11 4511 3 4525 -4 6 -91 10 -216 11 l-210 2 0 -2215 c0 -1983 -3 -2292
-19 -2373 -2 -12 -7 -38 -10 -57 -12 -71 -55 -219 -80 -276 -40 -91 -105 -181
-194 -271 -178 -179 -317 -237 -570 -237 -189 -1 -281 25 -400 112 -40 29
-116 111 -136 144 -74 125 -132 291 -149 427 -4 30 -10 63 -13 75 -3 12 -8
777 -9 1701 -5 2894 -5 2855 -28 2893 -23 38 -63 61 -121 69 -45 5 -1111 10
-1157 5z"/>
<path d="M15704 15680 l-29 -5 0 -230 0 -230 639 -2 c351 -1 641 -5 644 -8 3
-3 6 -1170 6 -2593 1 -2583 1 -2587 21 -2622 12 -19 36 -43 55 -54 33 -19 53
-20 628 -21 332 0 596 4 599 9 3 5 6 1196 6 2647 l0 2639 31 0 c17 1 311 1
654 1 l622 -1 1 38 c1 43 1 412 0 427 -1 10 -3818 15 -3877 5z"/>
<path d="M20736 15680 c-1 -3 -2 -1274 -2 -2825 l1 -2820 21 -40 c12 -22 36
-49 55 -60 33 -19 57 -20 1434 -20 l1400 0 1 223 c1 160 -1 222 -10 223 -6 1
-362 3 -791 4 -429 2 -785 3 -790 4 -7 1 -10 401 -10 1181 l0 1180 586 0 586
0 0 225 0 225 -586 2 -586 3 0 1013 0 1012 65 0 c36 1 387 2 780 3 l715 2 3
233 2 232 -37 1 c-264 3 -2835 3 -2837 -1z"/>
<path d="M2355 9555 c-85 -17 -143 -39 -227 -87 -40 -23 -77 -46 -83 -51 -5
-4 -128 -82 -273 -174 -145 -91 -262 -167 -260 -168 3 -4 467 -268 548 -313
25 -14 90 -51 145 -82 55 -31 120 -68 145 -82 92 -51 386 -219 400 -228 56
-38 253 -111 352 -131 29 -6 58 -12 63 -13 12 -3 70 -14 110 -21 116 -19 420
-26 575 -12 41 3 161 28 265 55 182 46 194 51 290 112 55 34 102 64 103 66 2
1 1 11 -2 22 -6 17 -172 116 -536 319 -19 11 -105 60 -190 108 -85 49 -173 98
-195 110 -33 18 -188 106 -380 215 -351 200 -573 322 -608 334 -87 29 -163 36
-242 21z"/>
</g>
</svg>
